STARTFONT 2.1
FONT -Monotype-Gill Sans-Medium-R-Normal--14-140-72-72-P-64-ISO8859-1
SIZE 14 72 72
FONTBOUNDINGBOX 21 16 -5 -3

STARTPROPERTIES 22
FOUNDRY "Monotype"
FAMILY_NAME "Gill Sans"
WEIGHT_NAME "Medium"
SLANT "R"
SETWIDTH_NAME "Normal"
ADD_STYLE_NAME ""
PIXEL_SIZE 14
POINT_SIZE 140
RESOLUTION_X 72
RESOLUTION_Y 72
SPACING "P"
AVERAGE_WIDTH 64
CHARSET_REGISTRY "ISO8859"
CHARSET_ENCODING "1"
FULL_NAME "GillSans"
COPYRIGHT "Copyright (c) 1991 The Monotype Corporation plc."
WEIGHT 10
X_HEIGHT 7
QUAD_WIDTH 9
DEFAULT_CHAR 32
FONT_DESCENT 4
FONT_ASCENT 12
ENDPROPERTIES

CHARS 190

STARTCHAR space
ENCODING 32
SWIDTH 278 0
DWIDTH 4 0
BBX 1 1 0 0
BITMAP
00
ENDCHAR

STARTCHAR exclam
ENCODING 33
SWIDTH 271 0
DWIDTH 4 0
BBX 1 10 1 0
BITMAP
80
80
80
80
80
80
80
00
00
80
ENDCHAR

STARTCHAR quotedbl
ENCODING 34
SWIDTH 354 0
DWIDTH 5 0
BBX 3 4 1 6
BITMAP
A0
A0
A0
A0
ENDCHAR

STARTCHAR numbersign
ENCODING 35
SWIDTH 584 0
DWIDTH 9 0
BBX 8 11 1 -1
BITMAP
12
22
22
FF
22
24
24
FF
44
44
4C
ENDCHAR

STARTCHAR dollar
ENCODING 36
SWIDTH 542 0
DWIDTH 8 0
BBX 6 12 1 -2
BITMAP
7C
94
90
F0
70
18
14
14
94
F8
10
10
ENDCHAR

STARTCHAR percent
ENCODING 37
SWIDTH 680 0
DWIDTH 10 0
BBX 9 10 1 0
BITMAP
6100
9200
9600
6400
0800
0F00
1880
3880
2880
4700
ENDCHAR

STARTCHAR ampersand
ENCODING 38
SWIDTH 625 0
DWIDTH 9 0
BBX 7 10 1 0
BITMAP
30
48
48
68
30
72
DC
88
9C
76
ENDCHAR

STARTCHAR quoteright
ENCODING 39
SWIDTH 219 0
DWIDTH 3 0
BBX 1 3 1 7
BITMAP
80
80
80
ENDCHAR

STARTCHAR parenleft
ENCODING 40
SWIDTH 323 0
DWIDTH 5 0
BBX 3 13 1 -3
BITMAP
20
40
40
80
80
80
80
80
80
80
40
40
20
ENDCHAR

STARTCHAR parenright
ENCODING 41
SWIDTH 323 0
DWIDTH 5 0
BBX 3 13 0 -3
BITMAP
80
40
40
20
20
20
20
20
20
20
40
40
80
ENDCHAR

STARTCHAR asterisk
ENCODING 42
SWIDTH 417 0
DWIDTH 6 0
BBX 5 6 0 4
BITMAP
20
A8
70
70
A8
20
ENDCHAR

STARTCHAR plus
ENCODING 43
SWIDTH 584 0
DWIDTH 8 0
BBX 7 7 1 1
BITMAP
10
10
10
FE
10
10
10
ENDCHAR

STARTCHAR comma
ENCODING 44
SWIDTH 219 0
DWIDTH 3 0
BBX 1 3 1 -2
BITMAP
80
80
80
ENDCHAR

STARTCHAR minus
ENCODING 45
SWIDTH 584 0
DWIDTH 8 0
BBX 7 1 1 4
BITMAP
FE
ENDCHAR

STARTCHAR period
ENCODING 46
SWIDTH 219 0
DWIDTH 3 0
BBX 1 1 1 0
BITMAP
80
ENDCHAR

STARTCHAR slash
ENCODING 47
SWIDTH 281 0
DWIDTH 4 0
BBX 5 13 0 -3
BITMAP
08
10
10
10
20
20
20
20
40
40
40
80
80
ENDCHAR

STARTCHAR zero
ENCODING 48
SWIDTH 500 0
DWIDTH 7 0
BBX 6 10 1 0
BITMAP
30
48
84
84
84
84
84
84
48
30
ENDCHAR

STARTCHAR one
ENCODING 49
SWIDTH 500 0
DWIDTH 7 0
BBX 1 10 3 0
BITMAP
80
80
80
80
80
80
80
80
80
80
ENDCHAR

STARTCHAR two
ENCODING 50
SWIDTH 500 0
DWIDTH 7 0
BBX 6 10 1 0
BITMAP
F0
98
08
08
08
10
10
20
40
FC
ENDCHAR

STARTCHAR three
ENCODING 51
SWIDTH 500 0
DWIDTH 7 0
BBX 4 10 1 0
BITMAP
E0
90
10
10
60
10
10
10
90
E0
ENDCHAR

STARTCHAR four
ENCODING 52
SWIDTH 500 0
DWIDTH 7 0
BBX 6 10 0 0
BITMAP
08
18
18
28
48
48
FC
08
08
08
ENDCHAR

STARTCHAR five
ENCODING 53
SWIDTH 500 0
DWIDTH 7 0
BBX 5 10 1 0
BITMAP
78
40
40
70
18
08
08
08
98
F0
ENDCHAR

STARTCHAR six
ENCODING 54
SWIDTH 500 0
DWIDTH 7 0
BBX 6 10 1 0
BITMAP
18
30
40
40
F8
8C
84
84
CC
78
ENDCHAR

STARTCHAR seven
ENCODING 55
SWIDTH 500 0
DWIDTH 7 0
BBX 6 10 1 0
BITMAP
FC
08
08
10
10
10
20
20
20
40
ENDCHAR

STARTCHAR eight
ENCODING 56
SWIDTH 500 0
DWIDTH 7 0
BBX 6 10 1 0
BITMAP
78
84
84
CC
78
CC
84
84
CC
78
ENDCHAR

STARTCHAR nine
ENCODING 57
SWIDTH 500 0
DWIDTH 7 0
BBX 6 10 0 0
BITMAP
78
88
84
C4
7C
04
08
10
30
40
ENDCHAR

STARTCHAR colon
ENCODING 58
SWIDTH 219 0
DWIDTH 3 0
BBX 1 7 1 0
BITMAP
80
00
00
00
00
00
80
ENDCHAR

STARTCHAR semicolon
ENCODING 59
SWIDTH 219 0
DWIDTH 3 0
BBX 1 7 1 0
BITMAP
80
00
00
00
80
80
80
ENDCHAR

STARTCHAR less
ENCODING 60
SWIDTH 584 0
DWIDTH 8 0
BBX 7 8 1 1
BITMAP
02
0E
30
C0
C0
30
0E
02
ENDCHAR

STARTCHAR equal
ENCODING 61
SWIDTH 584 0
DWIDTH 8 0
BBX 7 4 1 3
BITMAP
FE
00
00
FE
ENDCHAR

STARTCHAR greater
ENCODING 62
SWIDTH 584 0
DWIDTH 8 0
BBX 6 8 1 1
BITMAP
80
E0
30
0C
0C
30
E0
80
ENDCHAR

STARTCHAR question
ENCODING 63
SWIDTH 333 0
DWIDTH 5 0
BBX 2 10 1 0
BITMAP
C0
40
40
40
80
80
80
00
00
80
ENDCHAR

STARTCHAR at
ENCODING 64
SWIDTH 1010 0
DWIDTH 14 0
BBX 13 13 1 -3
BITMAP
0FC0
3060
6750
49C8
98C8
9088
9088
9190
91B0
CFC8
4010
3060
0F80
ENDCHAR

STARTCHAR A
ENCODING 65
SWIDTH 667 0
DWIDTH 9 0
BBX 9 10 0 0
BITMAP
0800
0C00
1400
1400
2200
2200
3F00
4100
4180
8080
ENDCHAR

STARTCHAR B
ENCODING 66
SWIDTH 563 0
DWIDTH 8 0
BBX 6 10 1 0
BITMAP
F0
88
88
88
F8
8C
84
84
8C
F8
ENDCHAR

STARTCHAR C
ENCODING 67
SWIDTH 708 0
DWIDTH 10 0
BBX 8 10 1 0
BITMAP
1E
61
40
80
80
80
80
40
61
1E
ENDCHAR

STARTCHAR D
ENCODING 68
SWIDTH 750 0
DWIDTH 11 0
BBX 8 10 1 0
BITMAP
F8
86
82
81
81
81
81
82
86
F8
ENDCHAR

STARTCHAR E
ENCODING 69
SWIDTH 500 0
DWIDTH 7 0
BBX 5 10 1 0
BITMAP
F8
80
80
80
F8
80
80
80
80
F8
ENDCHAR

STARTCHAR F
ENCODING 70
SWIDTH 469 0
DWIDTH 7 0
BBX 5 10 1 0
BITMAP
F8
80
80
80
F8
80
80
80
80
80
ENDCHAR

STARTCHAR G
ENCODING 71
SWIDTH 740 0
DWIDTH 10 0
BBX 8 10 1 0
BITMAP
1E
61
40
80
80
87
81
41
61
1E
ENDCHAR

STARTCHAR H
ENCODING 72
SWIDTH 729 0
DWIDTH 10 0
BBX 8 10 1 0
BITMAP
81
81
81
81
FF
81
81
81
81
81
ENDCHAR

STARTCHAR I
ENCODING 73
SWIDTH 250 0
DWIDTH 4 0
BBX 1 10 1 0
BITMAP
80
80
80
80
80
80
80
80
80
80
ENDCHAR

STARTCHAR J
ENCODING 74
SWIDTH 250 0
DWIDTH 4 0
BBX 3 13 0 -3
BITMAP
20
20
20
20
20
20
20
20
20
20
20
20
C0
ENDCHAR

STARTCHAR K
ENCODING 75
SWIDTH 656 0
DWIDTH 9 0
BBX 8 10 1 0
BITMAP
86
88
90
B0
E0
B0
98
88
84
83
ENDCHAR

STARTCHAR L
ENCODING 76
SWIDTH 490 0
DWIDTH 7 0
BBX 5 10 1 0
BITMAP
80
80
80
80
80
80
80
80
80
F8
ENDCHAR

STARTCHAR M
ENCODING 77
SWIDTH 781 0
DWIDTH 11 0
BBX 9 10 1 0
BITMAP
8080
C180
A280
9680
9C80
8880
8080
8080
8080
8080
ENDCHAR

STARTCHAR N
ENCODING 78
SWIDTH 781 0
DWIDTH 11 0
BBX 9 10 1 0
BITMAP
8080
C080
A080
9080
9880
8C80
8480
8280
8180
8080
ENDCHAR

STARTCHAR O
ENCODING 79
SWIDTH 823 0
DWIDTH 12 0
BBX 10 10 1 0
BITMAP
1E00
6180
4080
8040
8040
8040
8040
4080
6180
1E00
ENDCHAR

STARTCHAR P
ENCODING 80
SWIDTH 510 0
DWIDTH 7 0
BBX 6 10 1 0
BITMAP
F8
84
84
84
F8
80
80
80
80
80
ENDCHAR

STARTCHAR Q
ENCODING 81
SWIDTH 823 0
DWIDTH 12 0
BBX 10 12 1 -2
BITMAP
1E00
6180
4080
8040
8040
8040
8040
4080
6180
1E00
0600
03C0
ENDCHAR

STARTCHAR R
ENCODING 82
SWIDTH 604 0
DWIDTH 8 0
BBX 7 10 1 0
BITMAP
F0
88
88
88
F0
90
90
88
84
86
ENDCHAR

STARTCHAR S
ENCODING 83
SWIDTH 458 0
DWIDTH 6 0
BBX 5 10 1 0
BITMAP
78
88
80
80
60
10
08
08
88
F0
ENDCHAR

STARTCHAR T
ENCODING 84
SWIDTH 604 0
DWIDTH 8 0
BBX 7 10 1 0
BITMAP
FE
10
10
10
10
10
10
10
10
10
ENDCHAR

STARTCHAR U
ENCODING 85
SWIDTH 708 0
DWIDTH 10 0
BBX 8 10 1 0
BITMAP
81
81
81
81
81
81
81
81
42
3C
ENDCHAR

STARTCHAR V
ENCODING 86
SWIDTH 604 0
DWIDTH 8 0
BBX 8 10 0 0
BITMAP
81
41
42
22
24
34
14
18
08
08
ENDCHAR

STARTCHAR W
ENCODING 87
SWIDTH 1042 0
DWIDTH 15 0
BBX 14 10 0 0
BITMAP
8104
4304
4288
6688
2488
2450
1850
1830
1820
1020
ENDCHAR

STARTCHAR X
ENCODING 88
SWIDTH 708 0
DWIDTH 10 0
BBX 10 10 0 0
BITMAP
C080
2100
3200
1600
0C00
0C00
1200
2300
6100
C0C0
ENDCHAR

STARTCHAR Y
ENCODING 89
SWIDTH 604 0
DWIDTH 8 0
BBX 9 10 0 0
BITMAP
C180
2200
3600
1C00
0800
0800
0800
0800
0800
0800
ENDCHAR

STARTCHAR Z
ENCODING 90
SWIDTH 646 0
DWIDTH 9 0
BBX 9 10 0 0
BITMAP
FF00
0200
0600
0400
0800
1800
1000
2000
6000
FF80
ENDCHAR

STARTCHAR bracketleft
ENCODING 91
SWIDTH 333 0
DWIDTH 5 0
BBX 3 13 1 -3
BITMAP
E0
80
80
80
80
80
80
80
80
80
80
80
E0
ENDCHAR

STARTCHAR backslash
ENCODING 92
SWIDTH 281 0
DWIDTH 4 0
BBX 4 10 0 0
BITMAP
80
80
40
40
40
20
20
20
20
10
ENDCHAR

STARTCHAR bracketright
ENCODING 93
SWIDTH 333 0
DWIDTH 5 0
BBX 3 13 0 -3
BITMAP
E0
20
20
20
20
20
20
20
20
20
20
20
E0
ENDCHAR

STARTCHAR asciicircum
ENCODING 94
SWIDTH 469 0
DWIDTH 7 0
BBX 6 5 0 5
BITMAP
30
30
48
48
C4
ENDCHAR

STARTCHAR underscore
ENCODING 95
SWIDTH 500 0
DWIDTH 8 0
BBX 8 1 0 -3
BITMAP
FF
ENDCHAR

STARTCHAR quoteleft
ENCODING 96
SWIDTH 219 0
DWIDTH 3 0
BBX 1 3 1 7
BITMAP
80
80
80
ENDCHAR

STARTCHAR a
ENCODING 97
SWIDTH 427 0
DWIDTH 6 0
BBX 5 7 1 0
BITMAP
E0
90
10
70
90
90
F8
ENDCHAR

STARTCHAR b
ENCODING 98
SWIDTH 500 0
DWIDTH 7 0
BBX 5 10 1 0
BITMAP
80
80
80
F0
98
88
88
88
98
F0
ENDCHAR

STARTCHAR c
ENCODING 99
SWIDTH 438 0
DWIDTH 6 0
BBX 5 7 1 0
BITMAP
78
48
80
80
80
C8
78
ENDCHAR

STARTCHAR d
ENCODING 100
SWIDTH 510 0
DWIDTH 7 0
BBX 5 10 1 0
BITMAP
08
08
08
78
C8
88
88
88
C8
78
ENDCHAR

STARTCHAR e
ENCODING 101
SWIDTH 479 0
DWIDTH 7 0
BBX 5 7 1 0
BITMAP
70
88
88
F8
80
C8
78
ENDCHAR

STARTCHAR f
ENCODING 102
SWIDTH 250 0
DWIDTH 4 0
BBX 4 10 0 0
BITMAP
30
40
40
E0
40
40
40
40
40
40
ENDCHAR

STARTCHAR g
ENCODING 103
SWIDTH 427 0
DWIDTH 6 0
BBX 7 10 0 -3
BITMAP
3E
44
44
44
38
40
7C
82
82
7C
ENDCHAR

STARTCHAR h
ENCODING 104
SWIDTH 500 0
DWIDTH 7 0
BBX 5 10 1 0
BITMAP
80
80
80
F0
88
88
88
88
88
88
ENDCHAR

STARTCHAR i
ENCODING 105
SWIDTH 219 0
DWIDTH 3 0
BBX 1 10 1 0
BITMAP
80
00
00
80
80
80
80
80
80
80
ENDCHAR

STARTCHAR j
ENCODING 106
SWIDTH 219 0
DWIDTH 3 0
BBX 2 13 0 -3
BITMAP
40
00
00
40
40
40
40
40
40
40
40
40
80
ENDCHAR

STARTCHAR k
ENCODING 107
SWIDTH 479 0
DWIDTH 7 0
BBX 6 10 1 0
BITMAP
80
80
80
98
90
A0
E0
B0
90
8C
ENDCHAR

STARTCHAR l
ENCODING 108
SWIDTH 219 0
DWIDTH 3 0
BBX 1 10 1 0
BITMAP
80
80
80
80
80
80
80
80
80
80
ENDCHAR

STARTCHAR m
ENCODING 109
SWIDTH 771 0
DWIDTH 11 0
BBX 9 7 1 0
BITMAP
F700
8880
8880
8880
8880
8880
8880
ENDCHAR

STARTCHAR n
ENCODING 110
SWIDTH 500 0
DWIDTH 7 0
BBX 5 7 1 0
BITMAP
F0
88
88
88
88
88
88
ENDCHAR

STARTCHAR o
ENCODING 111
SWIDTH 552 0
DWIDTH 8 0
BBX 6 7 1 0
BITMAP
78
CC
84
84
84
CC
78
ENDCHAR

STARTCHAR p
ENCODING 112
SWIDTH 500 0
DWIDTH 7 0
BBX 5 10 1 -3
BITMAP
F0
98
88
88
88
98
F0
80
80
80
ENDCHAR

STARTCHAR q
ENCODING 113
SWIDTH 500 0
DWIDTH 7 0
BBX 5 10 1 -3
BITMAP
78
C8
88
88
88
C8
78
08
08
08
ENDCHAR

STARTCHAR r
ENCODING 114
SWIDTH 396 0
DWIDTH 6 0
BBX 4 7 1 0
BITMAP
F0
D0
80
80
80
80
80
ENDCHAR

STARTCHAR s
ENCODING 115
SWIDTH 385 0
DWIDTH 5 0
BBX 4 7 1 0
BITMAP
70
90
80
60
10
90
E0
ENDCHAR

STARTCHAR t
ENCODING 116
SWIDTH 333 0
DWIDTH 5 0
BBX 4 9 0 0
BITMAP
40
40
F0
40
40
40
40
50
30
ENDCHAR

STARTCHAR u
ENCODING 117
SWIDTH 500 0
DWIDTH 7 0
BBX 5 7 1 0
BITMAP
88
88
88
88
88
88
78
ENDCHAR

STARTCHAR v
ENCODING 118
SWIDTH 438 0
DWIDTH 6 0
BBX 6 7 0 0
BITMAP
84
48
48
38
30
30
20
ENDCHAR

STARTCHAR w
ENCODING 119
SWIDTH 719 0
DWIDTH 10 0
BBX 10 7 0 0
BITMAP
8C40
4C80
4C80
3380
3300
3300
2200
ENDCHAR

STARTCHAR x
ENCODING 120
SWIDTH 500 0
DWIDTH 7 0
BBX 7 7 0 0
BITMAP
C6
68
38
10
38
6C
C6
ENDCHAR

STARTCHAR y
ENCODING 121
SWIDTH 438 0
DWIDTH 6 0
BBX 6 10 0 -3
BITMAP
C4
48
48
30
30
10
20
20
40
C0
ENDCHAR

STARTCHAR z
ENCODING 122
SWIDTH 417 0
DWIDTH 6 0
BBX 6 7 0 0
BITMAP
F8
10
10
20
20
40
FC
ENDCHAR

STARTCHAR braceleft
ENCODING 123
SWIDTH 333 0
DWIDTH 5 0
BBX 4 13 0 -3
BITMAP
30
40
40
40
40
40
80
40
40
40
40
40
30
ENDCHAR

STARTCHAR bar
ENCODING 124
SWIDTH 260 0
DWIDTH 4 0
BBX 1 13 1 -3
BITMAP
80
80
80
80
80
80
80
80
80
80
80
80
80
ENDCHAR

STARTCHAR braceright
ENCODING 125
SWIDTH 333 0
DWIDTH 5 0
BBX 4 13 0 -3
BITMAP
C0
20
20
20
20
20
10
20
20
20
20
20
C0
ENDCHAR

STARTCHAR asciitilde
ENCODING 126
SWIDTH 584 0
DWIDTH 8 0
BBX 7 2 1 5
BITMAP
F2
9E
ENDCHAR

STARTCHAR exclamdown
ENCODING 161
SWIDTH 271 0
DWIDTH 4 0
BBX 1 9 1 -3
BITMAP
80
00
00
80
80
80
80
80
80
ENDCHAR

STARTCHAR cent
ENCODING 162
SWIDTH 438 0
DWIDTH 6 0
BBX 5 13 1 -3
BITMAP
08
08
10
78
58
90
A0
A0
E8
38
40
40
80
ENDCHAR

STARTCHAR sterling
ENCODING 163
SWIDTH 531 0
DWIDTH 7 0
BBX 6 10 1 0
BITMAP
1C
10
20
20
F0
40
40
40
40
7C
ENDCHAR

STARTCHAR currency
ENCODING 164
SWIDTH 552 0
DWIDTH 8 0
BBX 8 8 0 1
BITMAP
83
7F
66
42
42
66
FE
C1
ENDCHAR

STARTCHAR yen
ENCODING 165
SWIDTH 552 0
DWIDTH 8 0
BBX 7 10 0 0
BITMAP
86
44
4C
28
28
FE
10
FE
10
10
ENDCHAR

STARTCHAR brokenbar
ENCODING 166
SWIDTH 260 0
DWIDTH 4 0
BBX 1 13 1 -3
BITMAP
80
80
80
80
80
00
00
80
80
80
80
80
80
ENDCHAR

STARTCHAR section
ENCODING 167
SWIDTH 406 0
DWIDTH 6 0
BBX 6 13 0 -3
BITMAP
38
48
40
60
B0
88
C4
64
3C
08
08
48
70
ENDCHAR

STARTCHAR dieresis
ENCODING 168
SWIDTH 333 0
DWIDTH 5 0
BBX 4 1 0 9
BITMAP
90
ENDCHAR

STARTCHAR copyright
ENCODING 169
SWIDTH 740 0
DWIDTH 10 0
BBX 10 10 0 0
BITMAP
1E00
6D80
5280
9040
9040
9040
9240
4C80
6180
1E00
ENDCHAR

STARTCHAR ordfeminine
ENCODING 170
SWIDTH 281 0
DWIDTH 4 0
BBX 4 4 0 6
BITMAP
E0
A0
E0
F0
ENDCHAR

STARTCHAR guillemotleft
ENCODING 171
SWIDTH 490 0
DWIDTH 7 0
BBX 6 7 0 0
BITMAP
90
48
6C
24
6C
48
90
ENDCHAR

STARTCHAR logicalnot
ENCODING 172
SWIDTH 584 0
DWIDTH 8 0
BBX 6 4 1 2
BITMAP
FC
04
04
04
ENDCHAR

STARTCHAR hyphen
ENCODING 173
SWIDTH 323 0
DWIDTH 5 0
BBX 3 1 1 2
BITMAP
E0
ENDCHAR

STARTCHAR registered
ENCODING 174
SWIDTH 740 0
DWIDTH 10 0
BBX 10 10 0 0
BITMAP
1E00
6180
5E80
9240
9E40
9440
9440
5280
6180
1E00
ENDCHAR

STARTCHAR macron
ENCODING 175
SWIDTH 333 0
DWIDTH 5 0
BBX 5 1 0 9
BITMAP
F8
ENDCHAR

STARTCHAR degree
ENCODING 176
SWIDTH 396 0
DWIDTH 6 0
BBX 4 3 1 7
BITMAP
60
90
60
ENDCHAR

STARTCHAR plusminus
ENCODING 177
SWIDTH 584 0
DWIDTH 8 0
BBX 7 9 1 0
BITMAP
10
10
10
FE
10
10
10
00
FE
ENDCHAR

STARTCHAR twosuperior
ENCODING 178
SWIDTH 323 0
DWIDTH 4 0
BBX 3 6 -4 4
BITMAP
E0
20
20
20
40
E0
ENDCHAR

STARTCHAR threesuperior
ENCODING 179
SWIDTH 323 0
DWIDTH 4 0
BBX 3 6 -4 4
BITMAP
E0
20
60
20
20
C0
ENDCHAR

STARTCHAR acute
ENCODING 180
SWIDTH 333 0
DWIDTH 5 0
BBX 2 2 2 8
BITMAP
40
80
ENDCHAR

STARTCHAR mu
ENCODING 181
SWIDTH 552 0
DWIDTH 8 0
BBX 5 9 1 -2
BITMAP
88
88
88
88
88
88
F8
80
80
ENDCHAR

STARTCHAR paragraph
ENCODING 182
SWIDTH 542 0
DWIDTH 8 0
BBX 8 13 0 -3
BITMAP
7F
F2
F2
F2
72
12
12
12
12
12
12
12
12
ENDCHAR

STARTCHAR periodcentered
ENCODING 183
SWIDTH 260 0
DWIDTH 4 0
BBX 1 1 1 4
BITMAP
80
ENDCHAR

STARTCHAR cedilla
ENCODING 184
SWIDTH 333 0
DWIDTH 5 0
BBX 2 3 2 -3
BITMAP
80
40
C0
ENDCHAR

STARTCHAR onesuperior
ENCODING 185
SWIDTH 323 0
DWIDTH 4 0
BBX 1 6 -5 4
BITMAP
80
80
80
80
80
80
ENDCHAR

STARTCHAR ordmasculine
ENCODING 186
SWIDTH 365 0
DWIDTH 5 0
BBX 5 4 0 6
BITMAP
70
88
88
70
ENDCHAR

STARTCHAR guillemotright
ENCODING 187
SWIDTH 490 0
DWIDTH 7 0
BBX 6 7 0 0
BITMAP
24
48
D8
90
D8
48
24
ENDCHAR

STARTCHAR onequarter
ENCODING 188
SWIDTH 844 0
DWIDTH 11 0
BBX 9 10 5 0
BITMAP
8100
8200
8200
8400
8C80
8980
1180
3380
2080
4080
ENDCHAR

STARTCHAR onehalf
ENCODING 189
SWIDTH 844 0
DWIDTH 11 0
BBX 9 10 5 0
BITMAP
8100
8200
8200
8400
8F80
8880
1080
3080
2100
4380
ENDCHAR

STARTCHAR threequarters
ENCODING 190
SWIDTH 844 0
DWIDTH 11 0
BBX 10 10 6 0
BITMAP
E080
2100
6100
2200
2640
C4C0
08C0
19C0
1040
2040
ENDCHAR

STARTCHAR questiondown
ENCODING 191
SWIDTH 333 0
DWIDTH 5 0
BBX 2 10 1 -3
BITMAP
40
00
00
40
40
40
80
80
80
C0
ENDCHAR

STARTCHAR Agrave
ENCODING 192
SWIDTH 667 0
DWIDTH 9 0
BBX 9 13 0 0
BITMAP
1000
0800
0000
0800
0C00
1400
1400
2200
2200
3F00
4100
4180
8080
ENDCHAR

STARTCHAR Aacute
ENCODING 193
SWIDTH 667 0
DWIDTH 9 0
BBX 9 13 0 0
BITMAP
0400
0800
0000
0800
0C00
1400
1400
2200
2200
3F00
4100
4180
8080
ENDCHAR

STARTCHAR Acircumflex
ENCODING 194
SWIDTH 667 0
DWIDTH 9 0
BBX 9 13 0 0
BITMAP
0C00
1200
0000
0800
0C00
1400
1400
2200
2200
3F00
4100
4180
8080
ENDCHAR

STARTCHAR Atilde
ENCODING 195
SWIDTH 667 0
DWIDTH 9 0
BBX 9 12 0 0
BITMAP
1E00
0000
0800
0C00
1400
1400
2200
2200
3F00
4100
4180
8080
ENDCHAR

STARTCHAR Adieresis
ENCODING 196
SWIDTH 667 0
DWIDTH 9 0
BBX 9 12 0 0
BITMAP
1200
0000
0800
0C00
1400
1400
2200
2200
3F00
4100
4180
8080
ENDCHAR

STARTCHAR Aring
ENCODING 197
SWIDTH 667 0
DWIDTH 9 0
BBX 9 13 0 0
BITMAP
1C00
1C00
0000
0800
0C00
1400
1400
2200
2200
3F00
4100
4180
8080
ENDCHAR

STARTCHAR AE
ENCODING 198
SWIDTH 896 0
DWIDTH 13 0
BBX 12 10 0 0
BITMAP
03F0
0500
0D00
0900
1FF0
1100
2100
2100
4100
C1F0
ENDCHAR

STARTCHAR Ccedilla
ENCODING 199
SWIDTH 708 0
DWIDTH 10 0
BBX 8 13 1 -3
BITMAP
1E
61
40
80
80
80
80
40
61
1E
10
08
18
ENDCHAR

STARTCHAR Egrave
ENCODING 200
SWIDTH 500 0
DWIDTH 7 0
BBX 5 13 1 0
BITMAP
40
20
00
F8
80
80
80
F8
80
80
80
80
F8
ENDCHAR

STARTCHAR Eacute
ENCODING 201
SWIDTH 500 0
DWIDTH 7 0
BBX 5 13 1 0
BITMAP
10
20
00
F8
80
80
80
F8
80
80
80
80
F8
ENDCHAR

STARTCHAR Ecircumflex
ENCODING 202
SWIDTH 500 0
DWIDTH 7 0
BBX 5 13 1 0
BITMAP
60
90
00
F8
80
80
80
F8
80
80
80
80
F8
ENDCHAR

STARTCHAR Edieresis
ENCODING 203
SWIDTH 500 0
DWIDTH 7 0
BBX 5 12 1 0
BITMAP
90
00
F8
80
80
80
F8
80
80
80
80
F8
ENDCHAR

STARTCHAR Igrave
ENCODING 204
SWIDTH 250 0
DWIDTH 4 0
BBX 2 13 2 0
BITMAP
80
40
00
40
40
40
40
40
40
40
40
40
40
ENDCHAR

STARTCHAR Iacute
ENCODING 205
SWIDTH 250 0
DWIDTH 4 0
BBX 2 13 1 0
BITMAP
40
80
00
80
80
80
80
80
80
80
80
80
80
ENDCHAR

STARTCHAR Icircumflex
ENCODING 206
SWIDTH 250 0
DWIDTH 4 0
BBX 4 13 3 0
BITMAP
60
90
00
20
20
20
20
20
20
20
20
20
20
ENDCHAR

STARTCHAR Idieresis
ENCODING 207
SWIDTH 250 0
DWIDTH 4 0
BBX 4 12 3 0
BITMAP
90
00
20
20
20
20
20
20
20
20
20
20
ENDCHAR

STARTCHAR Eth
ENCODING 208
SWIDTH 750 0
DWIDTH 11 0
BBX 9 10 0 0
BITMAP
7C00
4300
4100
4080
F880
4080
4080
4100
4300
7C00
ENDCHAR

STARTCHAR Ntilde
ENCODING 209
SWIDTH 781 0
DWIDTH 11 0
BBX 9 12 1 0
BITMAP
3C00
0000
8080
C080
A080
9080
9880
8C80
8480
8280
8180
8080
ENDCHAR

STARTCHAR Ograve
ENCODING 210
SWIDTH 823 0
DWIDTH 12 0
BBX 10 13 1 0
BITMAP
0800
0400
0000
1E00
6180
4080
8040
8040
8040
8040
4080
6180
1E00
ENDCHAR

STARTCHAR Oacute
ENCODING 211
SWIDTH 823 0
DWIDTH 12 0
BBX 10 13 1 0
BITMAP
0400
0800
0000
1E00
6180
4080
8040
8040
8040
8040
4080
6180
1E00
ENDCHAR

STARTCHAR Ocircumflex
ENCODING 212
SWIDTH 823 0
DWIDTH 12 0
BBX 10 13 1 0
BITMAP
0C00
1200
0000
1E00
6180
4080
8040
8040
8040
8040
4080
6180
1E00
ENDCHAR

STARTCHAR Otilde
ENCODING 213
SWIDTH 823 0
DWIDTH 12 0
BBX 10 12 1 0
BITMAP
1E00
0000
1E00
6180
4080
8040
8040
8040
8040
4080
6180
1E00
ENDCHAR

STARTCHAR Odieresis
ENCODING 214
SWIDTH 823 0
DWIDTH 12 0
BBX 10 12 1 0
BITMAP
1200
0000
1E00
6180
4080
8040
8040
8040
8040
4080
6180
1E00
ENDCHAR

STARTCHAR multiply
ENCODING 215
SWIDTH 584 0
DWIDTH 8 0
BBX 6 6 1 2
BITMAP
84
48
30
30
48
84
ENDCHAR

STARTCHAR Oslash
ENCODING 216
SWIDTH 823 0
DWIDTH 12 0
BBX 10 10 1 0
BITMAP
1EC0
6180
4180
8240
8440
8C40
9840
5080
6180
5E00
ENDCHAR

STARTCHAR Ugrave
ENCODING 217
SWIDTH 708 0
DWIDTH 10 0
BBX 8 13 1 0
BITMAP
10
08
00
81
81
81
81
81
81
81
81
42
3C
ENDCHAR

STARTCHAR Uacute
ENCODING 218
SWIDTH 708 0
DWIDTH 10 0
BBX 8 13 1 0
BITMAP
08
10
00
81
81
81
81
81
81
81
81
42
3C
ENDCHAR

STARTCHAR Ucircumflex
ENCODING 219
SWIDTH 708 0
DWIDTH 10 0
BBX 8 13 1 0
BITMAP
18
24
00
81
81
81
81
81
81
81
81
42
3C
ENDCHAR

STARTCHAR Udieresis
ENCODING 220
SWIDTH 708 0
DWIDTH 10 0
BBX 8 12 1 0
BITMAP
24
00
81
81
81
81
81
81
81
81
42
3C
ENDCHAR

STARTCHAR Yacute
ENCODING 221
SWIDTH 604 0
DWIDTH 8 0
BBX 9 13 0 0
BITMAP
0400
0800
0000
C180
2200
3600
1C00
0800
0800
0800
0800
0800
0800
ENDCHAR

STARTCHAR Thorn
ENCODING 222
SWIDTH 510 0
DWIDTH 7 0
BBX 6 10 1 0
BITMAP
80
80
F8
8C
84
84
8C
F8
80
80
ENDCHAR

STARTCHAR germandbls
ENCODING 223
SWIDTH 500 0
DWIDTH 7 0
BBX 5 10 1 0
BITMAP
70
88
88
B8
90
88
88
88
88
B0
ENDCHAR

STARTCHAR agrave
ENCODING 224
SWIDTH 427 0
DWIDTH 6 0
BBX 5 10 1 0
BITMAP
40
20
00
E0
90
10
70
90
90
F8
ENDCHAR

STARTCHAR aacute
ENCODING 225
SWIDTH 427 0
DWIDTH 6 0
BBX 5 10 1 0
BITMAP
10
20
00
E0
90
10
70
90
90
F8
ENDCHAR

STARTCHAR acircumflex
ENCODING 226
SWIDTH 427 0
DWIDTH 6 0
BBX 5 10 1 0
BITMAP
60
90
00
E0
90
10
70
90
90
F8
ENDCHAR

STARTCHAR atilde
ENCODING 227
SWIDTH 427 0
DWIDTH 6 0
BBX 5 9 1 0
BITMAP
F0
00
E0
90
10
70
90
90
F8
ENDCHAR

STARTCHAR adieresis
ENCODING 228
SWIDTH 427 0
DWIDTH 6 0
BBX 5 9 1 0
BITMAP
90
00
E0
90
10
70
90
90
F8
ENDCHAR

STARTCHAR aring
ENCODING 229
SWIDTH 427 0
DWIDTH 6 0
BBX 5 10 1 0
BITMAP
70
70
00
E0
90
10
70
90
90
F8
ENDCHAR

STARTCHAR ae
ENCODING 230
SWIDTH 667 0
DWIDTH 9 0
BBX 8 7 1 0
BITMAP
EE
91
1F
70
90
99
EF
ENDCHAR

STARTCHAR ccedilla
ENCODING 231
SWIDTH 438 0
DWIDTH 6 0
BBX 5 10 1 -3
BITMAP
78
48
80
80
80
C8
78
20
10
30
ENDCHAR

STARTCHAR egrave
ENCODING 232
SWIDTH 479 0
DWIDTH 7 0
BBX 5 10 1 0
BITMAP
40
20
00
70
88
88
F8
80
C8
78
ENDCHAR

STARTCHAR eacute
ENCODING 233
SWIDTH 479 0
DWIDTH 7 0
BBX 5 10 1 0
BITMAP
10
20
00
70
88
88
F8
80
C8
78
ENDCHAR

STARTCHAR ecircumflex
ENCODING 234
SWIDTH 479 0
DWIDTH 7 0
BBX 5 10 1 0
BITMAP
60
90
00
70
88
88
F8
80
C8
78
ENDCHAR

STARTCHAR edieresis
ENCODING 235
SWIDTH 479 0
DWIDTH 7 0
BBX 5 9 1 0
BITMAP
90
00
70
88
88
F8
80
C8
78
ENDCHAR

STARTCHAR igrave
ENCODING 236
SWIDTH 219 0
DWIDTH 3 0
BBX 2 10 2 0
BITMAP
80
40
00
40
40
40
40
40
40
40
ENDCHAR

STARTCHAR iacute
ENCODING 237
SWIDTH 219 0
DWIDTH 3 0
BBX 2 10 1 0
BITMAP
40
80
00
80
80
80
80
80
80
80
ENDCHAR

STARTCHAR icircumflex
ENCODING 238
SWIDTH 219 0
DWIDTH 3 0
BBX 4 10 3 0
BITMAP
60
90
00
20
20
20
20
20
20
20
ENDCHAR

STARTCHAR idieresis
ENCODING 239
SWIDTH 219 0
DWIDTH 3 0
BBX 4 9 3 0
BITMAP
90
00
20
20
20
20
20
20
20
ENDCHAR

STARTCHAR eth
ENCODING 240
SWIDTH 563 0
DWIDTH 8 0
BBX 7 10 0 0
BITMAP
7C
68
04
3C
46
82
82
82
44
38
ENDCHAR

STARTCHAR ntilde
ENCODING 241
SWIDTH 500 0
DWIDTH 7 0
BBX 5 9 1 0
BITMAP
F0
00
F0
88
88
88
88
88
88
ENDCHAR

STARTCHAR ograve
ENCODING 242
SWIDTH 552 0
DWIDTH 8 0
BBX 6 10 1 0
BITMAP
20
10
00
78
CC
84
84
84
CC
78
ENDCHAR

STARTCHAR oacute
ENCODING 243
SWIDTH 552 0
DWIDTH 8 0
BBX 6 10 1 0
BITMAP
10
20
00
78
CC
84
84
84
CC
78
ENDCHAR

STARTCHAR ocircumflex
ENCODING 244
SWIDTH 552 0
DWIDTH 8 0
BBX 6 10 1 0
BITMAP
30
48
00
78
CC
84
84
84
CC
78
ENDCHAR

STARTCHAR otilde
ENCODING 245
SWIDTH 552 0
DWIDTH 8 0
BBX 6 9 1 0
BITMAP
78
00
78
CC
84
84
84
CC
78
ENDCHAR

STARTCHAR odieresis
ENCODING 246
SWIDTH 552 0
DWIDTH 8 0
BBX 6 9 1 0
BITMAP
48
00
78
CC
84
84
84
CC
78
ENDCHAR

STARTCHAR divide
ENCODING 247
SWIDTH 584 0
DWIDTH 8 0
BBX 7 5 1 2
BITMAP
10
00
FE
00
10
ENDCHAR

STARTCHAR oslash
ENCODING 248
SWIDTH 552 0
DWIDTH 8 0
BBX 6 7 1 0
BITMAP
7C
CC
94
A4
C4
CC
78
ENDCHAR

STARTCHAR ugrave
ENCODING 249
SWIDTH 500 0
DWIDTH 7 0
BBX 5 10 1 0
BITMAP
40
20
00
88
88
88
88
88
88
78
ENDCHAR

STARTCHAR uacute
ENCODING 250
SWIDTH 500 0
DWIDTH 7 0
BBX 5 10 1 0
BITMAP
10
20
00
88
88
88
88
88
88
78
ENDCHAR

STARTCHAR ucircumflex
ENCODING 251
SWIDTH 500 0
DWIDTH 7 0
BBX 5 10 1 0
BITMAP
60
90
00
88
88
88
88
88
88
78
ENDCHAR

STARTCHAR udieresis
ENCODING 252
SWIDTH 500 0
DWIDTH 7 0
BBX 5 9 1 0
BITMAP
90
00
88
88
88
88
88
88
78
ENDCHAR

STARTCHAR yacute
ENCODING 253
SWIDTH 438 0
DWIDTH 6 0
BBX 6 13 0 -3
BITMAP
10
20
00
C4
48
48
30
30
10
20
20
40
C0
ENDCHAR

STARTCHAR thorn
ENCODING 254
SWIDTH 500 0
DWIDTH 7 0
BBX 5 13 1 -3
BITMAP
80
80
80
F0
98
88
88
88
98
F0
80
80
80
ENDCHAR

STARTCHAR ydieresis
ENCODING 255
SWIDTH 438 0
DWIDTH 6 0
BBX 6 12 0 -3
BITMAP
48
00
C4
48
48
30
30
10
20
20
40
C0
ENDCHAR
ENDFONT
